<svg id="Logo" xmlns="http://www.w3.org/2000/svg" width="59.387" height="46.997" viewBox="0 0 59.387 46.997" role="img" aria-label="EG Group">
  <g id="Group_1" data-name="Group 1">
    <g id="Group_1-2" data-name="Group 1">
      <path id="Path_1" data-name="Path 1" d="M251.146,67.9H232.017v4.936H246.18a9.748,9.748,0,1,1-9.419-12.339,9.652,9.652,0,0,1,7.589,3.7h5.675a14.85,14.85,0,1,0,1.323,6.169A15.1,15.1,0,0,0,251.146,67.9Z" transform="translate(-191.962 -55.557)" fill="#91b508"/>
      <path id="Path_2" data-name="Path 2" d="M86.455,72.831a15.127,15.127,0,0,0,.2-2.468,14.744,14.744,0,1,0-1.324,6.169H79.659a9.652,9.652,0,0,1-7.589,3.7A9.872,9.872,0,1,1,81.489,67.9H66.744v4.936H86.455Z" transform="translate(-57.482 -55.557)" fill="#91b508"/>
    </g>
    <g id="Group_3" data-name="Group 3" transform="translate(8.652 32.1)">
      <g id="Group_2" data-name="Group 2" transform="translate(0 0)">
        <path id="Path_3" data-name="Path 3" d="M110.26,239.952c-3.615,0-5.613-2.413-5.613-5.982,0-3.586,2.163-6.016,5.679-6.016a6.968,6.968,0,0,1,3.483.855l-.38,2.5a5.573,5.573,0,0,0-3.038-.989c-1.965,0-2.922,1.475-2.922,3.636,0,2.178.991,3.7,2.955,3.7a2.982,2.982,0,0,0,1.535-.369v-2.061H109.98l-.33-2.128h4.771v5.63A7.424,7.424,0,0,1,110.26,239.952Z" transform="translate(-104.647 -227.954)" fill="#005fab"/>
        <path id="Path_4" data-name="Path 4" d="M168.879,250.044V254.6h-2.493v-8.211h2.179l.264,1.625a2.87,2.87,0,0,1,2.361-1.793l.413,2.581A3.955,3.955,0,0,0,168.879,250.044Z" transform="translate(-155.06 -242.821)" fill="#005fab"/>
        <path id="Path_5" data-name="Path 5" d="M200.4,254.769c-2.229,0-3.863-1.626-3.863-4.256s1.651-4.29,3.879-4.29c2.245,0,3.9,1.642,3.9,4.273S202.645,254.769,200.4,254.769Zm.016-6.468c-.958,0-1.469.855-1.469,2.2,0,1.324.528,2.229,1.469,2.229.958,0,1.486-.888,1.486-2.212S201.374,248.3,200.416,248.3Z" transform="translate(-179.68 -242.821)" fill="#005fab"/>
        <path id="Path_6" data-name="Path 6" d="M249.958,255.334l-.182-1.123a3.6,3.6,0,0,1-2.526,1.29c-1.5,0-2.295-.938-2.295-2.53v-5.848h2.493v5.144c0,.587.248,1.005.842,1.005a2.012,2.012,0,0,0,1.37-.737v-5.413h2.493v8.211Z" transform="translate(-219.217 -243.554)" fill="#005fab"/>
        <path id="Path_7" data-name="Path 7" d="M296.847,254.685a5.127,5.127,0,0,1-1.7-.285v2.932l-2.493.386V246.391h2.2l.165,1.089a3.106,3.106,0,0,1,2.328-1.257c1.667,0,2.906,1.274,2.906,4.055C300.248,253.4,298.63,254.685,296.847,254.685Zm-.314-6.2a1.841,1.841,0,0,0-1.387.838v3.117a2.3,2.3,0,0,0,1.139.251c.842,0,1.469-.654,1.469-2.246C297.755,249.072,297.244,248.485,296.534,248.485Z" transform="translate(-258.165 -242.821)" fill="#005fab"/>
      </g>
    </g>
  </g>
</svg>
