<svg width="48" height="48" viewBox="0 0 48 48" fill="none" xmlns="http://www.w3.org/2000/svg" role="img" aria-label="EG">
  <rect width="48" height="48" rx="10" fill="#ffffff"/>
  <!-- Official EG "eg" symbol (green), centred. Source paths span ~59.4 x ~30
       in the brand artwork; scaled to ~0.62 and centred in the 48x48 tile. -->
  <g transform="translate(5.6, 14.7) scale(0.62)">
    <path d="M251.146,67.9H232.017v4.936H246.18a9.748,9.748,0,1,1-9.419-12.339,9.652,9.652,0,0,1,7.589,3.7h5.675a14.85,14.85,0,1,0,1.323,6.169A15.1,15.1,0,0,0,251.146,67.9Z" transform="translate(-191.962 -55.557)" fill="#91b508"/>
    <path d="M86.455,72.831a15.127,15.127,0,0,0,.2-2.468,14.744,14.744,0,1,0-1.324,6.169H79.659a9.652,9.652,0,0,1-7.589,3.7A9.872,9.872,0,1,1,81.489,67.9H66.744v4.936H86.455Z" transform="translate(-57.482 -55.557)" fill="#91b508"/>
  </g>
</svg>
